<svg xmlns="http://www.w3.org/2000/svg" style="width: var(--icon-width, 18px); height: var(--icon-height, 18px);" viewBox="0 0 18 18">
  <path fill="var(--icon-fill, #181D1E)" d="M14.319 3.012a.974.974 0 0 0-.544.283l-4.551 4.55-4.551-4.552a.972.972 0 0 0-1.598.315l-.04.124a.974.974 0 0 0 .263.94l4.55 4.551-4.552 4.554a.972.972 0 0 0 .432 1.642l.129.024a.973.973 0 0 0 .82-.293l4.548-4.549 4.552 4.553a.972.972 0 0 0 1.642-.432l.024-.129a.974.974 0 0 0-.292-.82l-4.55-4.55 4.553-4.553a.973.973 0 0 0-.71-1.67l-.125.012Z"/>
</svg>
