<svg
  viewBox="0 0 24 24"
  fill="none"
  xmlns="http://www.w3.org/2000/svg"
  style="width: var(--icon-width, 24px); height: var(--icon-height, 24px)">
  <path
    fill-rule="evenodd"
    clip-rule="evenodd"
    d="M0.333008 11C0.333008 5.11848 5.11811 0.333374 10.9997 0.333374C16.8812 0.333374 21.6663 5.11848 21.6663 11C21.6663 16.8816 16.8812 21.6667 10.9997 21.6667C5.11811 21.6667 0.333008 16.8816 0.333008 11ZM20.0663 11C20.0663 5.98318 16.0165 1.93337 10.9997 1.93337C5.98281 1.93337 1.93301 5.98318 1.93301 11C1.93301 16.0169 5.98281 20.0667 10.9997 20.0667C16.0165 20.0667 20.0663 16.0169 20.0663 11ZM10.9997 5.66671C10.4106 5.66671 9.93301 6.14427 9.93301 6.73337C9.93301 7.32248 10.4106 7.80004 10.9997 7.80004C11.5888 7.80004 12.0663 7.32248 12.0663 6.73337C12.0663 6.14427 11.5888 5.66671 10.9997 5.66671ZM10.1997 10.2C10.1933 9.75861 10.5458 9.39548 10.9872 9.38858C11.2035 9.3852 11.412 9.46957 11.5651 9.62246C11.7181 9.77535 11.8028 9.98371 11.7997 10.2V16.0667C11.8038 16.3552 11.6522 16.6236 11.403 16.769C11.1538 16.9145 10.8456 16.9145 10.5964 16.769C10.3472 16.6236 10.1956 16.3552 10.1997 16.0667V10.2Z"
    fill="var(--icon-fill, #444444)" />
</svg>
